<svg width="394" height="320" viewBox="0 0 394 320" fill="none" xmlns="http://www.w3.org/2000/svg">
<g clip-path="url(#clip0)">
<path d="M393.573 318.911H0V319.752H393.573V318.911Z" fill="#4A4B53"/>
<path d="M199.239 86.7052H197.56V40.6437C197.56 37.1427 196.872 33.6761 195.535 30.4416C194.198 27.2072 192.237 24.2683 189.766 21.7928C187.295 19.3173 184.362 17.3536 181.133 16.0138C177.905 14.674 174.445 13.9845 170.95 13.9845H73.5406C70.0461 13.9845 66.5858 14.674 63.3572 16.0138C60.1287 17.3535 57.1952 19.3172 54.7241 21.7927C52.2531 24.2683 50.293 27.2071 48.9557 30.4416C47.6184 33.676 46.9301 37.1427 46.9301 40.6436V293.341C46.9301 300.411 49.7337 307.192 54.7241 312.192C59.7145 317.191 66.483 320 73.5405 320H170.95C178.007 320 184.776 317.191 189.766 312.192C194.757 307.192 197.56 300.411 197.56 293.341V119.493H199.239L199.239 86.7052Z" fill="#4A4B53"/>
<path d="M191.898 40.8296V293.155C191.898 298.435 189.804 303.499 186.077 307.233C182.35 310.967 177.295 313.065 172.025 313.065H74.1437C71.5342 313.065 68.9502 312.549 66.5393 311.549C64.1285 310.548 61.938 309.082 60.093 307.233C58.2479 305.384 56.7844 303.189 55.7861 300.774C54.7878 298.358 54.2742 295.769 54.2746 293.155V40.8296C54.2742 38.2153 54.7878 35.6265 55.7861 33.211C56.7844 30.7955 58.2479 28.6007 60.093 26.7519C61.938 24.9031 64.1285 23.4365 66.5393 22.4358C68.9502 21.4352 71.5342 20.9201 74.1437 20.9199H86.0216C85.4359 22.3562 85.212 23.9148 85.3697 25.4582C85.5274 27.0016 86.0617 28.4824 86.9256 29.7701C87.7895 31.0577 88.9564 32.1126 90.3234 32.8416C91.6904 33.5707 93.2155 33.9515 94.7642 33.9506H150.569C152.117 33.9514 153.642 33.5704 155.009 32.8412C156.376 32.112 157.542 31.057 158.406 29.7693C159.27 28.4816 159.803 27.0008 159.961 25.4575C160.118 23.9142 159.893 22.3558 159.307 20.9199H172.025C177.295 20.92 182.35 23.0177 186.077 26.7515C189.804 30.4852 191.898 35.5493 191.898 40.8296V40.8296Z" fill="white"/>
<path d="M98.5164 88.697C112.888 88.697 124.538 77.0252 124.538 62.6273C124.538 48.2294 112.888 36.5576 98.5164 36.5576C84.1448 36.5576 72.4943 48.2294 72.4943 62.6273C72.4943 77.0252 84.1448 88.697 98.5164 88.697Z" fill="#FF6B6B"/>
<path d="M164.344 187.547C166.253 168.149 160.107 151.664 150.618 150.727C141.128 149.789 131.888 164.755 129.979 184.153C128.069 203.551 134.215 220.036 143.704 220.974C153.194 221.911 162.435 206.945 164.344 187.547Z" fill="#0B7975"/>
<path d="M143.09 243.498C140.279 201.454 151.148 160.911 151.258 160.507L152.574 160.866C152.464 161.268 141.656 201.598 144.451 243.407L143.09 243.498Z" fill="#13C7C1"/>
<path d="M163.032 179.792L146.675 186.583L147.197 187.846L163.554 181.055L163.032 179.792Z" fill="#13C7C1"/>
<path d="M131.326 180.872L130.568 182.009L145.283 191.874L146.042 190.738L131.326 180.872Z" fill="#13C7C1"/>
<path d="M144.815 130.923C148.549 92.9828 136.529 60.7397 117.969 58.9063C99.4079 57.073 81.3345 86.3436 77.6005 124.284C73.8665 162.225 85.8859 194.468 104.447 196.301C123.007 198.135 141.081 168.864 144.815 130.923Z" fill="#E6E6E6"/>
<path d="M103.895 240.313C98.4046 158.187 119.634 78.9976 119.849 78.2073L121.165 78.5667C120.951 79.3551 99.7819 158.332 105.256 240.223L103.895 240.313Z" fill="#0B7975"/>
<path d="M142.499 116.358L110.506 129.641L111.028 130.904L143.022 117.62L142.499 116.358Z" fill="#0B7975"/>
<path d="M79.8733 118.409L79.1144 119.545L107.897 138.84L108.656 137.704L79.8733 118.409Z" fill="#0B7975"/>
<path d="M240.861 98.6613C245.971 46.7427 229.523 2.62053 204.124 0.111707C178.726 -2.39712 153.994 37.6574 148.884 89.5761C143.774 141.495 160.222 185.617 185.621 188.126C211.019 190.634 235.751 150.58 240.861 98.6613Z" fill="#13C7C1"/>
<path d="M185.116 248.336C177.606 135.995 206.646 27.6708 206.94 26.5899L208.257 26.9493C207.963 28.0283 178.984 136.14 186.478 248.245L185.116 248.336Z" fill="#0B7975"/>
<path d="M237.789 78.9616L194.009 97.1387L194.531 98.4016L238.311 80.2245L237.789 78.9616Z" fill="#0B7975"/>
<path d="M151.854 81.7454L151.095 82.8815L190.482 109.285L191.241 108.149L151.854 81.7454Z" fill="#0B7975"/>
<path d="M54.2746 246.923L53.4352 294.228C53.4352 305.42 63.1683 314.494 74.1438 314.494H172.025C183 314.494 192.737 305.42 192.737 294.228L191.898 247.338C142.552 228.175 96.9219 229.377 54.2746 246.923Z" fill="#13C7C1"/>
<path d="M263.087 82.446L268.298 78.2713C264.25 77.8239 262.587 80.0353 261.906 81.7857C258.744 80.4703 255.302 82.1942 255.302 82.1942L265.726 85.9856C265.201 84.5784 264.285 83.3505 263.087 82.446V82.446Z" fill="#4A4B53"/>
<path d="M135.746 45.591L140.956 41.4163C136.908 40.969 135.245 43.1804 134.565 44.9308C131.403 43.6154 127.96 45.3393 127.96 45.3393L138.385 49.1307C137.859 47.7234 136.943 46.4956 135.746 45.591V45.591Z" fill="#4A4B53"/>
<path d="M343.454 29.1481L348.664 24.9734C344.617 24.526 342.954 26.7375 342.273 28.4879C339.111 27.1725 335.669 28.8964 335.669 28.8964L346.093 32.6877C345.567 31.2805 344.652 30.0526 343.454 29.1481V29.1481Z" fill="#3F3D56"/>
<path d="M335.218 221.158L335.129 228.269C335.12 228.956 334.96 229.632 334.659 230.249C334.358 230.865 333.925 231.408 333.39 231.836C332.855 232.265 332.231 232.569 331.564 232.728C330.898 232.886 330.204 232.894 329.534 232.752V232.752C328.847 232.605 328.202 232.305 327.648 231.872C327.095 231.44 326.646 230.887 326.337 230.255C326.028 229.624 325.866 228.93 325.863 228.226C325.861 227.523 326.019 226.828 326.324 226.195L328.696 221.268L333.614 185.517L331.726 161.627L340.959 161.184L342.923 188.51L335.218 221.158Z" fill="#FFB9B9"/>
<path d="M289.981 258.941L281.104 306.826L285.543 306.142L301.93 257.915L289.981 258.941Z" fill="#FFB9B9"/>
<path d="M332.486 259.454L338.12 308.536L342.899 307.852L344.094 259.112L332.486 259.454Z" fill="#FFB9B9"/>
<path d="M383.015 245.088C370.289 255.331 355.388 270.374 340.552 264.77C325.07 258.922 307.203 258.552 287.079 261.164C291.885 230.961 297.82 202.383 305.515 176.339L331.121 180.444C331.517 180.882 330.561 183.254 330.95 183.693C338.148 191.814 345.489 198.108 349.925 206.472C356.462 218.92 365.308 230.005 375.989 239.132L383.015 245.088Z" fill="#E6E6E6"/>
<path opacity="0.5" d="M393.769 250.39C381.044 260.922 354.364 278.504 339.528 272.742C324.046 266.728 305.666 267.2 285.542 269.886C286.497 263.716 287.516 257.585 288.598 251.493C292.96 226.951 372.464 235.572 383.186 244.917L393.769 250.39Z" fill="#E6E6E6"/>
<path d="M342.522 162.715C337.735 161.313 332.854 162.009 327.909 164.163L329.7 150.677C329.518 149.191 329.933 147.694 330.854 146.515C331.774 145.336 333.124 144.571 334.607 144.389C336.09 144.207 337.584 144.623 338.761 145.545C339.938 146.467 340.702 147.819 340.883 149.305L342.522 162.715Z" fill="#2F2E41"/>
<path d="M320.708 134.44C325.987 134.44 330.267 130.152 330.267 124.863C330.267 119.574 325.987 115.286 320.708 115.286C315.428 115.286 311.148 119.574 311.148 124.863C311.148 130.152 315.428 134.44 320.708 134.44Z" fill="#FFB9B9"/>
<path d="M338.461 151.542L317.464 146.582C320.581 142.093 319.943 136.831 317.464 131.191L327.707 129.139C328.84 133.032 330.216 136.594 332.145 139.4L338.461 151.542Z" fill="#FFB9B9"/>
<path d="M331.121 181.812L305.174 178.049L306.037 173.181C305.627 160.498 307.714 150.117 311.66 141.452L334.535 142.82C337.469 145.172 339.543 148.431 340.432 152.089C341.322 155.747 340.976 159.596 339.45 163.037L331.462 178.734L331.121 181.812Z" fill="#2F2E41"/>
<path d="M286.145 319.176C284.947 319.723 283.945 315.288 282.935 316.282C280.109 319.063 275.783 319.669 272.012 318.455L273.332 318.44C273.105 318.367 272.894 318.248 272.714 318.091C272.534 317.934 272.387 317.742 272.283 317.526C272.179 317.31 272.12 317.076 272.109 316.837C272.098 316.598 272.135 316.359 272.219 316.134V316.134C272.32 315.866 272.484 315.626 272.697 315.436C272.91 315.245 273.167 315.109 273.444 315.039L276.449 314.287L281.166 305.975L286.308 305.324L286.437 305.536C287.431 307.141 288.072 308.94 288.317 310.812C288.562 312.685 288.405 314.588 287.858 316.395C287.43 317.768 286.848 318.854 286.145 319.176Z" fill="#2F2E41"/>
<path d="M342.819 319.176C341.622 319.723 340.619 315.288 339.609 316.282C336.784 319.063 332.457 319.669 328.687 318.455L330.006 318.44C329.779 318.367 329.568 318.248 329.388 318.091C329.208 317.934 329.061 317.742 328.957 317.526C328.853 317.31 328.794 317.076 328.783 316.837C328.772 316.598 328.809 316.359 328.893 316.134V316.134C328.994 315.866 329.158 315.626 329.371 315.436C329.584 315.245 329.841 315.109 330.118 315.039L333.123 314.287L337.84 305.975L342.982 305.324L343.111 305.536C344.105 307.141 344.746 308.94 344.991 310.812C345.236 312.685 345.079 314.588 344.532 316.395C344.104 317.768 343.522 318.854 342.819 319.176Z" fill="#2F2E41"/>
<path d="M332.606 165.223H332.362C327.745 161.216 323.733 156.723 326.973 151.099C324.225 144.112 321.162 136.856 321.347 132.367C321.541 129.048 320.475 125.779 318.362 123.215C315.442 119.798 314.792 118.272 309.46 119.564C309.441 118.192 309.7 116.831 310.223 115.562C310.745 114.294 311.52 113.145 312.499 112.186C313.478 111.226 314.642 110.477 315.92 109.982C317.197 109.487 318.562 109.257 319.931 109.307L323.262 109.429C325.811 109.522 333.957 110.565 335.705 112.25C336.592 113.133 337.263 114.21 337.666 115.395C338.069 116.581 338.193 117.844 338.028 119.085C337.701 121.871 338.579 124.331 340.923 126.394C345.41 131.043 347.261 135.867 344.717 140.982C342.796 146.397 342.888 150.854 347.842 152.997C349.451 159.183 338.987 165.223 332.606 165.223Z" fill="#2F2E41"/>
<path d="M283.248 194.979C284.573 193.752 283.62 190.563 281.121 187.856C278.622 185.149 275.523 183.95 274.198 185.177C272.874 186.404 273.827 189.593 276.326 192.3C278.825 195.007 281.924 196.206 283.248 194.979Z" fill="#4A4B53"/>
<path d="M291.994 173.924C297.285 173.924 301.575 169.626 301.575 164.325C301.575 159.024 297.285 154.726 291.994 154.726C286.702 154.726 282.412 159.024 282.412 164.325C282.412 169.626 286.702 173.924 291.994 173.924Z" fill="#13C7C1"/>
<path d="M308.083 225.491C303.787 223.541 299.784 220.997 296.193 217.933C288.942 211.653 283.677 202.64 283.285 192.898C282.909 183.55 286.863 174.761 291.046 166.638C291.572 165.616 292.104 164.597 292.641 163.58C292.845 163.192 293.478 163.453 293.273 163.843C288.934 172.093 284.381 180.811 283.969 190.324C283.535 200.352 288.426 209.91 295.702 216.581C299.456 219.966 303.708 222.752 308.308 224.841" fill="#4A4B53"/>
<path d="M288.337 164.063L287.892 164.166L289.335 170.423L289.78 170.32L288.337 164.063Z" fill="#4A4B53"/>
<path d="M294.921 215.143C296.711 214.919 297.791 211.771 297.334 208.112C296.877 204.454 295.055 201.67 293.266 201.894C291.476 202.119 290.395 205.267 290.853 208.925C291.31 212.584 293.131 215.368 294.921 215.143Z" fill="#4A4B53"/>
<path d="M305.515 214.305L304.564 221.353C304.472 222.034 304.231 222.685 303.858 223.261C303.485 223.836 302.988 224.322 302.405 224.682C301.822 225.043 301.166 225.269 300.485 225.345C299.804 225.421 299.115 225.344 298.467 225.121V225.121C297.803 224.892 297.199 224.516 296.702 224.019C296.205 223.522 295.827 222.919 295.596 222.254C295.366 221.59 295.29 220.881 295.373 220.183C295.456 219.484 295.696 218.814 296.076 218.222L299.028 213.621L308.246 178.734L309.271 154.791L318.489 155.475L317.123 182.838L305.515 214.305Z" fill="#FFB9B9"/>
<path d="M319.683 159.922C315.102 157.947 310.173 158.044 305.003 159.58L308.417 146.411C308.417 144.914 309.01 143.479 310.067 142.421C311.123 141.362 312.556 140.768 314.05 140.768C315.544 140.768 316.977 141.362 318.034 142.421C319.09 143.479 319.683 144.914 319.683 146.411V159.922Z" fill="#2F2E41"/>
</g>
<defs>
<clipPath id="clip0">
<rect width="393.769" height="320" fill="white"/>
</clipPath>
</defs>
</svg>
