<svg width="452" height="274" viewBox="0 0 452 274" fill="none" xmlns="http://www.w3.org/2000/svg">
<path d="M31.3494 256.629L58.0947 218.202L31.3358 260.809L31.3202 265.181C29.413 265.165 27.525 265.103 25.6562 264.995C25.6477 264.002 27.9209 209.381 27.8243 208.393C27.9563 208.355 28.0303 203.227 28.0826 203.002L0.141602 161.009L28.1126 199.028L28.196 200.152L29.8554 157.714L5.8371 114.257L30.0454 150.258C30.0544 149.68 31.1912 62.5467 31.2024 62.0091C31.2092 62.2947 31.731 131.35 31.7348 131.641L54.7055 103.845L31.7128 137.614L31.5953 175.595L52.9119 138.867C26.3091 192.429 32.1964 173.686 31.5169 202.299L62.4805 151.157L31.4904 209.666L31.3494 256.629Z" fill="#E1E1E1"/>
<path d="M226 273.45C350.816 273.45 452 269.485 452 264.595C452 259.705 350.816 255.741 226 255.741C101.184 255.741 0 259.705 0 264.595C0 269.485 101.184 273.45 226 273.45Z" fill="#E1E1E1"/>
<path d="M335.627 105.27H77.582V259.114H335.627V105.27Z" fill="#0B7975"/>
<path d="M141.444 105.27C141.18 121.459 134.564 136.896 123.023 148.251C111.482 159.607 95.9403 165.972 79.7493 165.974C79.024 165.974 78.303 165.961 77.582 165.936V105.27H141.444Z" fill="#13C7C1"/>
<path d="M219.227 259.114H194.685C195.608 256.603 197.28 254.435 199.474 252.904C201.669 251.373 204.28 250.552 206.956 250.552C209.632 250.552 212.243 251.373 214.438 252.904C216.632 254.435 218.304 256.603 219.227 259.114V259.114Z" fill="#13C7C1"/>
<path d="M335.627 179.538V231.358C328.974 231.032 322.701 228.161 318.108 223.337C313.514 218.514 310.952 212.108 310.952 205.448C310.952 198.787 313.514 192.382 318.108 187.558C322.701 182.735 328.974 179.863 335.627 179.538V179.538Z" fill="#13C7C1"/>
<path d="M288.222 161.173H125.434C121.236 161.173 117.832 164.577 117.832 168.776V168.776C117.832 172.975 121.236 176.378 125.434 176.378H288.222C292.421 176.378 295.824 172.975 295.824 168.776C295.824 164.577 292.421 161.173 288.222 161.173Z" fill="white"/>
<path d="M288.222 191.137H125.434C121.236 191.137 117.832 194.54 117.832 198.739V198.739C117.832 202.938 121.236 206.342 125.434 206.342H288.222C292.421 206.342 295.824 202.938 295.824 198.739C295.824 194.54 292.421 191.137 288.222 191.137Z" fill="white"/>
<path d="M288.222 221.1H241.022C236.824 221.1 233.42 224.504 233.42 228.703C233.42 232.902 236.824 236.306 241.022 236.306H288.222C292.421 236.306 295.824 232.902 295.824 228.703C295.824 224.504 292.421 221.1 288.222 221.1Z" fill="white"/>
<path d="M376.548 47.9642C376.548 47.9642 383.644 50.7236 384.038 59.7904C384.432 68.8571 382.067 94.0862 382.067 94.0862C382.067 94.0862 390.74 106.701 384.038 110.249C377.337 113.797 376.548 96.0573 376.548 96.0573L368.664 58.6077C368.664 58.6077 373.395 47.57 376.548 47.9642Z" fill="#A0616A"/>
<path d="M304.014 77.1354C304.014 77.1354 287.063 88.1731 286.275 79.5006C285.487 70.8281 291.4 36.9264 291.4 36.9264C291.4 36.9264 292.188 22.3408 300.466 25.8887C308.745 29.4365 298.101 41.6569 298.101 41.6569L299.284 69.2513L307.168 68.8571L304.014 77.1354Z" fill="#A0616A"/>
<path d="M331.214 87.3847C331.214 87.3847 279.179 68.0687 281.939 90.5384C284.698 113.008 298.101 141.391 298.101 141.391L302.831 148.881H312.687L306.379 108.278C306.379 108.278 328.849 120.892 335.551 118.921C335.551 118.921 344.223 176.869 347.377 181.206C350.53 185.542 356.049 237.971 356.049 237.971L361.174 244.279H371.029V155.582C371.029 155.582 387.98 100.394 374.971 97.6341C361.962 94.8746 331.214 87.3847 331.214 87.3847Z" fill="#2F2E41"/>
<path d="M301.649 143.756C301.649 143.756 299.284 139.42 295.342 143.756C291.4 148.092 281.939 153.217 281.939 153.217C281.939 153.217 261.44 157.948 277.997 161.89C294.553 165.832 296.524 161.89 296.524 161.89C296.524 161.89 299.284 162.678 301.649 163.466C304.014 164.255 319.388 161.495 319.388 159.13C319.388 156.765 314.169 142.63 312.048 144.77C309.927 146.91 301.649 143.756 301.649 143.756Z" fill="#2F2E41"/>
<path d="M361.929 240.377C361.929 240.377 356.117 235.59 354.749 236.958C353.382 238.325 346.202 247.557 346.202 247.557C346.202 247.557 327.055 262.258 344.492 264.652C361.929 267.045 360.903 260.549 360.903 260.549H366.374C367.058 260.549 376.289 256.446 375.947 254.737C375.605 253.027 371.502 239.087 370.135 240.074C368.767 241.06 361.929 240.377 361.929 240.377Z" fill="#2F2E41"/>
<path d="M309.139 32.9844C316.541 32.9844 322.542 26.9836 322.542 19.5814C322.542 12.1791 316.541 6.17838 309.139 6.17838C301.737 6.17838 295.736 12.1791 295.736 19.5814C295.736 26.9836 301.737 32.9844 309.139 32.9844Z" fill="#A0616A"/>
<path d="M318.6 18.0045C318.6 18.0045 328.849 26.6771 335.945 26.6771C343.04 26.6771 325.695 42.8395 325.695 42.8395L310.321 29.0423L318.6 18.0045Z" fill="#A0616A"/>
<path d="M322.542 42.8395L322.235 39.7338C322.235 39.7338 330.032 25.8887 332.397 24.706C334.762 23.5234 336.339 23.5234 336.339 23.5234C336.339 23.5234 344.223 15.2451 352.896 19.5814C361.568 23.9176 382.067 51.512 382.067 51.512C382.067 51.512 367.481 52.6946 369.452 64.1266C369.452 64.1266 384.038 101.576 380.096 101.97C376.154 102.365 364.328 99.6051 352.107 105.124C339.887 110.643 334.368 107.095 334.368 107.095L328.061 86.5963C328.061 86.5963 316.234 79.8948 316.629 73.9818L299.481 81.6688L301.058 67.0831L311.504 55.0599C311.504 55.0599 309.533 53.483 322.542 42.8395Z" fill="#E1E1E1"/>
<path d="M296.81 21.0304C296.277 21.6224 295.609 22.0771 294.864 22.3559C294.1 22.5712 293.138 22.3072 292.834 21.5747L293.401 20.8371L291.702 19.7813L292.442 18.9127L291.074 17.4267L292.154 16.5698L290.097 15.099C292.763 10.7499 295.645 6.34641 299.853 3.46338C304.061 0.580358 309.941 -0.444082 314.251 2.28287C316.489 3.69867 318.072 5.94577 319.34 8.27091C321.889 12.947 324.136 17.5052 324.468 22.8208C322.867 21.2613 320.529 20.3824 318.927 18.8229C318.218 18.0704 317.415 17.4127 316.537 16.8662C314.862 15.9216 312.858 15.838 310.982 15.4119C309.406 15.0537 308.382 14.3429 307.189 13.3269C305.77 12.1182 305.713 12.5856 304.28 13.9464C301.791 16.3094 299.301 18.6707 296.81 21.0304Z" fill="#2F2E41"/>
</svg>
